<svg width="17" height="17" viewBox="0 0 17 17" fill="none" xmlns="http://www.w3.org/2000/svg">
<g clip-path="url(#clip0_5933_352)">
<path d="M-11.8 8.30029C-11.8 10.9267 -11.2827 13.5275 -10.2776 15.954C-9.27255 18.3805 -7.79936 20.5853 -5.94218 22.4424C-4.08501 24.2996 -1.88023 25.7728 0.546283 26.7779C2.9728 27.783 5.57351 28.3003 8.19995 28.3003C10.8264 28.3003 13.4271 27.783 15.8536 26.7779C18.2801 25.7728 20.4849 24.2996 22.3421 22.4424C24.1993 20.5853 25.6725 18.3805 26.6775 15.954C27.6826 13.5275 28.2 10.9267 28.2 8.30029C28.2 5.67386 27.6826 3.07314 26.6775 0.646626C25.6725 -1.77989 24.1993 -3.98467 22.3421 -5.84184C20.4849 -7.69901 18.2801 -9.1722 15.8536 -10.1773C13.4271 -11.1824 10.8264 -11.6997 8.19995 -11.6997C5.57351 -11.6997 2.9728 -11.1824 0.546283 -10.1773C-1.88023 -9.1722 -4.08501 -7.69901 -5.94218 -5.84184C-7.79936 -3.98467 -9.27255 -1.77989 -10.2776 0.646626C-11.2827 3.07314 -11.8 5.67386 -11.8 8.30029Z" fill="#FFF1DC"/>
<path d="M13.764 6.69885C13.6625 6.28 13.2785 5.58358 12.8805 5.01052C12.7054 4.75881 12.3174 4.82049 12.2259 5.11399C12.0826 5.56766 11.8548 6.08898 11.4588 6.55758C11.3862 6.64314 11.2449 6.59936 11.238 6.48694C11.1624 5.3259 10.6122 2.32431 6.7321 1.90247C6.46447 1.87362 6.25554 2.13329 6.34309 2.38798C6.63559 3.24359 6.87039 4.88814 5.53027 5.89597C5.47555 5.93676 5.39993 5.92283 5.35715 5.8701C4.91045 5.30103 4.35331 4.95182 3.59818 4.81054C3.33454 4.76179 3.11267 5.00156 3.17336 5.26322C3.29076 5.76763 3.33951 6.62821 2.85898 7.8002C2.05212 9.76511 1.12189 14.5108 8.52489 14.5108C15.9279 14.5108 13.9063 7.28683 13.764 6.69885ZM5.12136 12.0016C5.06491 12.0546 4.99856 12.0959 4.92612 12.1231C4.85368 12.1504 4.77658 12.1631 4.69922 12.1605C4.62187 12.1579 4.54578 12.1401 4.47533 12.108C4.40487 12.076 4.34143 12.0304 4.28864 11.9738C3.3027 10.9192 3.7315 8.95228 3.78323 8.73142C3.85785 8.41504 4.17522 8.21805 4.4916 8.29366C4.5668 8.31134 4.63779 8.34366 4.70049 8.38878C4.7632 8.43391 4.8164 8.49094 4.85706 8.55663C4.89771 8.62233 4.92502 8.69539 4.93742 8.77164C4.94983 8.84789 4.94708 8.92584 4.92935 9.00103C4.83583 9.40297 4.67565 10.6625 5.14823 11.1689C5.37108 11.4067 5.35914 11.7798 5.12136 12.0016Z" fill="#FC7032"/>
<path d="M13.6386 6.33671C13.4685 5.93776 13.178 5.43932 12.8805 5.01052C12.7054 4.75881 12.3174 4.82049 12.2259 5.11399C12.0826 5.56766 11.8548 6.08898 11.4588 6.55758C11.3862 6.64314 11.2449 6.59936 11.238 6.48694C11.1624 5.3259 10.6122 2.32431 6.73209 1.90247C6.46447 1.87362 6.25554 2.13329 6.34309 2.38798C6.63559 3.24359 6.87038 4.88814 5.53026 5.89597C5.47554 5.93676 5.39993 5.92283 5.35715 5.8701C4.91044 5.30103 4.3533 4.95182 3.59818 4.81054C3.33453 4.76179 3.11267 5.00156 3.17336 5.26322C3.29076 5.76763 3.33951 6.62821 2.85897 7.8002C2.15459 9.51539 1.35768 13.3477 6.0874 14.2959C10.2033 13.8889 13.4446 10.5113 13.6386 6.33671ZM5.12136 12.0016C5.0649 12.0546 4.99856 12.0959 4.92612 12.1231C4.85368 12.1504 4.77657 12.1631 4.69922 12.1605C4.62186 12.1579 4.54578 12.1401 4.47533 12.108C4.40487 12.076 4.34143 12.0304 4.28864 11.9738C3.3027 10.9192 3.7315 8.95228 3.78323 8.73142C3.85785 8.41504 4.17522 8.21805 4.49159 8.29366C4.5668 8.31134 4.63778 8.34366 4.70049 8.38878C4.7632 8.43391 4.8164 8.49094 4.85705 8.55663C4.89771 8.62233 4.92502 8.69539 4.93742 8.77164C4.94983 8.84789 4.94708 8.92584 4.92935 9.00103C4.83583 9.40297 4.67565 10.6625 5.14822 11.1689C5.37108 11.4067 5.35914 11.7798 5.12136 12.0016Z" fill="#FF7C33"/>
<path d="M11.0268 5.27217C10.6418 3.92807 9.59319 2.21387 6.73089 1.90247C6.46326 1.87362 6.25433 2.13329 6.34188 2.38798C6.63438 3.24359 6.86918 4.88814 5.52906 5.89597C5.47434 5.93676 5.39873 5.92283 5.35594 5.8701C4.90924 5.30103 4.3521 4.95182 3.59697 4.81054C3.33333 4.76179 3.11147 5.00156 3.17215 5.26322C3.28955 5.76763 3.3383 6.62821 2.85777 7.8002C2.50558 8.65779 2.12951 10.0457 2.43494 11.338C2.60805 11.349 2.78116 11.3559 2.95726 11.3559C3.26667 11.3559 3.57111 11.338 3.87156 11.3052C3.44873 10.2456 3.74024 8.91249 3.78202 8.73241C3.85664 8.41604 4.17401 8.21905 4.49039 8.29466C4.56559 8.31233 4.63658 8.34466 4.69929 8.38978C4.76199 8.4349 4.81519 8.49194 4.85585 8.55763C4.8965 8.62332 4.92381 8.69638 4.93622 8.77263C4.94862 8.84889 4.94588 8.92684 4.92814 9.00203C4.8396 9.38307 4.69235 10.5342 5.07936 11.0833C7.94764 10.3362 10.215 8.1116 11.0268 5.27217Z" fill="#FF8D4D"/>
<path d="M6.73095 1.90247C6.46332 1.87362 6.25439 2.13329 6.34194 2.38798C6.63444 3.24359 6.86924 4.88814 5.52912 5.89597C5.4744 5.93676 5.39878 5.92283 5.356 5.8701C4.9093 5.30103 4.35216 4.95182 3.59703 4.81054C3.33339 4.76179 3.11153 5.00156 3.17221 5.26322C3.28961 5.76763 3.33836 6.62821 2.85783 7.8002C2.80793 7.92314 2.76083 8.04721 2.71655 8.17229C5.62761 7.50869 7.96362 5.33485 8.85206 2.51632C8.28895 2.21686 7.59252 1.99599 6.73095 1.90247Z" fill="#FFA56A"/>
</g>
<defs>
<clipPath id="clip0_5933_352">
<rect x="0.199951" y="0.300293" width="16" height="16" rx="8" fill="white"/>
</clipPath>
</defs>
</svg>
